<svg width="1920" height="219" viewBox="0 0 1920 219" fill="none" xmlns="http://www.w3.org/2000/svg">
<path d="M0.433594 164.263C119.982 94.2142 260.859 38.0016 401.683 61.5769C525.147 82.253 638.649 160.6 766.756 162.128C921.892 163.968 1027.37 -20.6588 1182.21 2.96857C1260.06 14.843 1329.07 86.0028 1390.71 130.601C1456.29 178.047 1525.7 218.792 1608.76 218.149C1722.54 217.264 1826.44 173.655 1919.52 110.585" stroke="#DFDFDF" stroke-miterlimit="10"/>
<path d="M0.433594 164.263C53.52 168.221 107.629 167.006 160.403 160.288C254.223 148.344 320.564 99.3356 403.26 59.0424C467.227 27.8633 532.684 25.3287 595.715 59.1813C645.597 85.9682 688.894 131.608 742.396 149.385C799.849 168.464 861.512 172.336 921.511 166.989C1074.55 153.326 1211.13 85.1523 1359.28 52.4802C1509.71 19.3047 1664.57 12.0481 1818.14 15.5549C1851.94 16.3187 1885.75 17.6207 1919.52 19.2873" stroke="#F0F0F0" stroke-width="2" stroke-miterlimit="10"/>
<mask id="mask0_0_387" style="mask-type:alpha" maskUnits="userSpaceOnUse" x="0" y="0" width="1920" height="218">
<rect width="1920" height="218" fill="#D9D9D9"/>
</mask>
<g mask="url(#mask0_0_387)">
<path d="M0.433594 164.263C119.982 94.2142 260.859 38.0016 401.683 61.5769C525.147 82.253 638.649 160.6 766.756 162.128C921.892 163.968 1027.37 -20.6588 1182.21 2.96857C1260.06 14.843 1329.07 86.0028 1390.71 130.601C1456.29 178.047 1525.7 218.792 1608.76 218.149C1722.54 217.264 1826.44 173.655 1919.52 110.585" stroke="white" stroke-opacity="0.5" stroke-width="2" stroke-miterlimit="10"/>
</g>
</svg>
