<svg width="1920" height="800" viewBox="0 0 1920 800" fill="none" xmlns="http://www.w3.org/2000/svg">
<mask id="mask0_34_200" style="mask-type:alpha" maskUnits="userSpaceOnUse" x="0" y="0" width="1920" height="800">
<rect width="1920" height="800" fill="#070707"/>
</mask>
<g mask="url(#mask0_34_200)">
<line x1="360" y1="89" x2="1560" y2="89" stroke="white" stroke-opacity="0.1" stroke-width="2"/>
<line x1="360" y1="289" x2="1560" y2="289" stroke="white" stroke-opacity="0.1" stroke-width="2"/>
<line x1="360" y1="489" x2="1560" y2="489" stroke="white" stroke-opacity="0.1" stroke-width="2"/>
<line x1="360" y1="689" x2="1560" y2="689" stroke="white" stroke-opacity="0.1" stroke-width="2"/>
<g opacity="0.6">
<path d="M250 -62.5001C250 21.7233 318.501 89.9998 403 89.9998C487.5 89.9998 556 21.7233 556 -62.5001C556 -146.723 487.5 -215 403 -215C318.501 -215 250 -146.723 250 -62.5001Z" stroke="url(#paint0_linear_34_200)" stroke-width="4" stroke-miterlimit="10"/>
<path d="M250 -37.9237C250 32.7263 318.501 89.9993 403 89.9993C487.5 89.9993 556 32.7262 556 -37.9237C556 -108.574 487.5 -165.847 403 -165.847C318.501 -165.847 250 -108.574 250 -37.9237Z" stroke="url(#paint1_linear_34_200)" stroke-miterlimit="10"/>
<path d="M250 -13.6485C250 43.5949 318.501 89.9999 403 89.9999C487.5 89.9999 556 43.5949 556 -13.6485C556 -70.8919 487.5 -117.297 403 -117.297C318.501 -117.297 250 -70.8919 250 -13.6485Z" stroke="url(#paint2_linear_34_200)" stroke-width="2" stroke-miterlimit="10"/>
<path d="M250 9.9108C250 54.1484 318.501 90.01 403 90.01C487.5 90.01 556 54.1484 556 9.91076C556 -34.3268 487.5 -70.1885 403 -70.1885C318.501 -70.1884 250 -34.3268 250 9.9108Z" stroke="url(#paint3_linear_34_200)" stroke-miterlimit="10"/>
<path d="M250 38.1758C250 66.7975 318.501 89.9999 403 89.9999C487.5 89.9999 556 66.7974 556 38.1757C556 9.55403 487.5 -13.6484 403 -13.6484C318.501 -13.6484 250 9.55407 250 38.1758Z" stroke="url(#paint4_linear_34_200)" stroke-width="2" stroke-miterlimit="10"/>
<path d="M250 64.0926C250 78.4007 318.501 89.9997 403 89.9997C487.5 89.9997 556 78.4007 556 64.0926C556 49.7845 487.5 38.1856 403 38.1856C318.501 38.1856 250 49.7846 250 64.0926Z" stroke="url(#paint5_linear_34_200)" stroke-miterlimit="10"/>
<path d="M250 242.5C250 326.723 318.501 395 403 395C487.5 395 556 326.723 556 242.5C556 158.277 487.5 90 403 90C318.501 90 250 158.277 250 242.5Z" stroke="url(#paint6_linear_34_200)" stroke-width="4" stroke-miterlimit="10"/>
<path d="M250 217.923C250 288.573 318.501 345.846 403 345.846C487.5 345.846 556 288.573 556 217.923C556 147.273 487.5 90 403 90C318.501 90 250 147.273 250 217.923Z" stroke="url(#paint7_linear_34_200)" stroke-width="2" stroke-miterlimit="10"/>
<path d="M250 193.648C250 250.892 318.501 297.297 403 297.297C487.5 297.297 556 250.892 556 193.648C556 136.405 487.5 90 403 90C318.501 90 250 136.405 250 193.648Z" stroke="url(#paint8_linear_34_200)" stroke-miterlimit="10"/>
<path d="M250 170.099C250 214.337 318.501 250.199 403 250.199C487.5 250.199 556 214.337 556 170.099C556 125.862 487.5 90 403 90C318.501 90 250 125.862 250 170.099Z" stroke="url(#paint9_linear_34_200)" stroke-width="2" stroke-miterlimit="10"/>
<path d="M250 141.824C250 170.446 318.501 193.648 403 193.648C487.5 193.648 556 170.446 556 141.824C556 113.202 487.5 90 403 90C318.501 90 250 113.203 250 141.824Z" stroke="url(#paint10_linear_34_200)" stroke-miterlimit="10"/>
<path d="M250 115.917C250 130.225 318.501 141.824 403 141.824C487.5 141.824 556 130.225 556 115.917C556 101.609 487.5 90.0103 403 90.0103C318.501 90.0103 250 101.609 250 115.917Z" stroke="url(#paint11_linear_34_200)" stroke-miterlimit="10"/>
<path d="M556 90L250 90" stroke="url(#paint12_linear_34_200)" stroke-width="4" stroke-miterlimit="10"/>
</g>
<path d="M1384.23 597.527C1356.48 576.408 1364.29 515.674 1401.67 461.873C1439.05 408.073 1491.85 381.579 1519.6 402.698C1547.35 423.816 1539.54 484.55 1502.16 538.351C1464.78 592.152 1411.98 618.645 1384.23 597.527Z" stroke="url(#paint13_linear_34_200)" stroke-miterlimit="10"/>
<path d="M1355.35 609.375C1323.89 585.434 1334.68 513.795 1379.45 449.364C1424.21 384.934 1486 352.111 1517.46 376.052C1548.92 399.993 1538.13 471.632 1493.37 536.062C1448.6 600.493 1386.81 633.316 1355.35 609.375Z" stroke="url(#paint14_linear_34_200)" stroke-miterlimit="10"/>
<path d="M1326.47 621.223C1291.3 594.459 1305.07 511.915 1357.22 436.855C1409.37 361.794 1480.15 322.642 1515.32 349.405C1550.49 376.169 1536.72 458.713 1484.57 533.773C1432.42 608.834 1361.64 647.986 1326.47 621.223Z" stroke="url(#paint15_linear_34_200)" stroke-miterlimit="10"/>
<path d="M1303.91 631.962C1265.04 602.376 1281.78 508.926 1341.32 423.236C1400.86 337.546 1480.63 292.064 1519.51 321.65C1558.38 351.236 1541.64 444.685 1482.1 530.376C1422.56 616.066 1342.79 661.547 1303.91 631.962Z" stroke="url(#paint16_linear_34_200)" stroke-miterlimit="10"/>
<path d="M1268.7 644.919C1226.12 612.511 1245.85 508.156 1312.77 411.836C1379.69 315.516 1468.46 263.705 1511.05 296.114C1553.63 328.522 1533.9 432.876 1466.98 529.196C1400.06 625.516 1311.29 677.327 1268.7 644.919Z" stroke="url(#paint17_linear_34_200)" stroke-miterlimit="10"/>
<path d="M1239.83 656.772C1193.53 621.539 1216.24 506.277 1290.54 399.327C1364.85 292.377 1462.62 234.239 1508.91 269.472C1555.21 304.705 1532.5 419.968 1458.2 526.918C1383.89 633.867 1286.12 692.005 1239.83 656.772Z" stroke="url(#paint18_linear_34_200)" stroke-miterlimit="10"/>
<path d="M1602.41 516.727C1560.67 516.727 1526.82 560.32 1526.82 614.095C1526.82 667.869 1560.67 711.462 1602.41 711.462C1644.16 711.462 1678 667.869 1678 614.095C1678 560.32 1644.16 516.727 1602.41 516.727Z" stroke="url(#paint19_linear_34_200)" stroke-width="3" stroke-miterlimit="10"/>
<path d="M1583.79 529.679C1547.6 529.679 1518.26 567.473 1518.26 614.095C1518.26 660.717 1547.6 698.511 1583.79 698.511C1619.98 698.511 1649.32 660.717 1649.32 614.095C1649.32 567.473 1619.98 529.679 1583.79 529.679Z" stroke="url(#paint20_linear_34_200)" stroke-miterlimit="10"/>
<path d="M1565.17 542.636C1534.53 542.636 1509.69 574.629 1509.69 614.095C1509.69 653.56 1534.53 685.554 1565.17 685.554C1595.81 685.554 1620.65 653.56 1620.65 614.095C1620.65 574.629 1595.81 542.636 1565.17 542.636Z" stroke="url(#paint21_linear_34_200)" stroke-width="2" stroke-miterlimit="10"/>
<path d="M1546.55 555.588C1521.46 555.588 1501.13 581.782 1501.13 614.095C1501.13 646.407 1521.46 672.602 1546.55 672.602C1571.63 672.602 1591.97 646.407 1591.97 614.095C1591.97 581.782 1571.63 555.588 1546.55 555.588Z" stroke="url(#paint22_linear_34_200)" stroke-miterlimit="10"/>
<path d="M1527.93 568.544C1508.4 568.544 1492.57 588.938 1492.57 614.095C1492.57 639.251 1508.4 659.645 1527.93 659.645C1547.46 659.645 1563.29 639.251 1563.29 614.095C1563.29 588.938 1547.46 568.544 1527.93 568.544Z" stroke="url(#paint23_linear_34_200)" stroke-miterlimit="10"/>
<path d="M1509.3 581.496C1495.33 581.496 1483.99 596.091 1483.99 614.095C1483.99 632.098 1495.33 646.693 1509.3 646.693C1523.28 646.693 1534.61 632.098 1534.61 614.095C1534.61 596.091 1523.28 581.496 1509.3 581.496Z" stroke="url(#paint24_linear_34_200)" stroke-width="2" stroke-miterlimit="10"/>
<path d="M1490.68 594.448C1482.26 594.448 1475.43 603.244 1475.43 614.095C1475.43 624.945 1482.26 633.742 1490.68 633.742C1499.1 633.742 1505.93 624.945 1505.93 614.095C1505.93 603.244 1499.1 594.448 1490.68 594.448Z" stroke="url(#paint25_linear_34_200)" stroke-miterlimit="10"/>
</g>
<defs>
<linearGradient id="paint0_linear_34_200" x1="403" y1="-215" x2="403" y2="89.9998" gradientUnits="userSpaceOnUse">
<stop stop-color="#1B9B6A"/>
<stop offset="1" stop-color="#2556FF"/>
</linearGradient>
<linearGradient id="paint1_linear_34_200" x1="403" y1="-165.847" x2="403" y2="89.9993" gradientUnits="userSpaceOnUse">
<stop stop-color="#1B9B6A"/>
<stop offset="1" stop-color="#2556FF"/>
</linearGradient>
<linearGradient id="paint2_linear_34_200" x1="403" y1="-117.297" x2="403" y2="89.9999" gradientUnits="userSpaceOnUse">
<stop stop-color="#1B9B6A"/>
<stop offset="1" stop-color="#2556FF"/>
</linearGradient>
<linearGradient id="paint3_linear_34_200" x1="403" y1="-70.1885" x2="403" y2="90.01" gradientUnits="userSpaceOnUse">
<stop stop-color="#1B9B6A"/>
<stop offset="1" stop-color="#2556FF"/>
</linearGradient>
<linearGradient id="paint4_linear_34_200" x1="403" y1="-13.6484" x2="403" y2="89.9999" gradientUnits="userSpaceOnUse">
<stop stop-color="#1B9B6A"/>
<stop offset="1" stop-color="#2556FF"/>
</linearGradient>
<linearGradient id="paint5_linear_34_200" x1="403" y1="38.1856" x2="403" y2="89.9997" gradientUnits="userSpaceOnUse">
<stop stop-color="#1B9B6A"/>
<stop offset="1" stop-color="#2556FF"/>
</linearGradient>
<linearGradient id="paint6_linear_34_200" x1="403" y1="90" x2="403" y2="395" gradientUnits="userSpaceOnUse">
<stop stop-color="#C42FA4"/>
<stop offset="1" stop-color="#7214F1"/>
</linearGradient>
<linearGradient id="paint7_linear_34_200" x1="403" y1="90" x2="403" y2="345.846" gradientUnits="userSpaceOnUse">
<stop stop-color="#C42FA4"/>
<stop offset="1" stop-color="#7214F1"/>
</linearGradient>
<linearGradient id="paint8_linear_34_200" x1="403" y1="90" x2="403" y2="297.297" gradientUnits="userSpaceOnUse">
<stop stop-color="#C42FA4"/>
<stop offset="1" stop-color="#7214F1"/>
</linearGradient>
<linearGradient id="paint9_linear_34_200" x1="403" y1="90" x2="403" y2="250.199" gradientUnits="userSpaceOnUse">
<stop stop-color="#C42FA4"/>
<stop offset="1" stop-color="#7214F1"/>
</linearGradient>
<linearGradient id="paint10_linear_34_200" x1="403" y1="90" x2="403" y2="193.648" gradientUnits="userSpaceOnUse">
<stop stop-color="#C42FA4"/>
<stop offset="1" stop-color="#7214F1"/>
</linearGradient>
<linearGradient id="paint11_linear_34_200" x1="403" y1="90.0103" x2="403" y2="141.824" gradientUnits="userSpaceOnUse">
<stop stop-color="#C42FA4"/>
<stop offset="1" stop-color="#7214F1"/>
</linearGradient>
<linearGradient id="paint12_linear_34_200" x1="403" y1="90" x2="403" y2="91" gradientUnits="userSpaceOnUse">
<stop stop-color="#C42FA4"/>
<stop offset="1" stop-color="#7214F1"/>
</linearGradient>
<linearGradient id="paint13_linear_34_200" x1="1519.6" y1="402.698" x2="1376.06" y2="591.305" gradientUnits="userSpaceOnUse">
<stop stop-color="#387099"/>
<stop offset="0.465" stop-color="#5D4F97"/>
<stop offset="1" stop-color="#8A3090"/>
</linearGradient>
<linearGradient id="paint14_linear_34_200" x1="1517.46" y1="376.052" x2="1345.56" y2="601.924" gradientUnits="userSpaceOnUse">
<stop stop-color="#387099"/>
<stop offset="0.465" stop-color="#5D4F97"/>
<stop offset="1" stop-color="#8A3090"/>
</linearGradient>
<linearGradient id="paint15_linear_34_200" x1="1515.32" y1="349.405" x2="1315.06" y2="612.542" gradientUnits="userSpaceOnUse">
<stop stop-color="#387099"/>
<stop offset="0.465" stop-color="#5D4F97"/>
<stop offset="1" stop-color="#8A3090"/>
</linearGradient>
<linearGradient id="paint16_linear_34_200" x1="1519.51" y1="321.65" x2="1290.89" y2="622.052" gradientUnits="userSpaceOnUse">
<stop stop-color="#387099"/>
<stop offset="0.465" stop-color="#5D4F97"/>
<stop offset="1" stop-color="#8A3090"/>
</linearGradient>
<linearGradient id="paint17_linear_34_200" x1="1511.05" y1="296.114" x2="1254.07" y2="633.78" gradientUnits="userSpaceOnUse">
<stop stop-color="#387099"/>
<stop offset="0.465" stop-color="#5D4F97"/>
<stop offset="1" stop-color="#8A3090"/>
</linearGradient>
<linearGradient id="paint18_linear_34_200" x1="1508.91" y1="269.472" x2="1223.57" y2="644.404" gradientUnits="userSpaceOnUse">
<stop stop-color="#387099"/>
<stop offset="0.465" stop-color="#5D4F97"/>
<stop offset="1" stop-color="#8A3090"/>
</linearGradient>
<linearGradient id="paint19_linear_34_200" x1="1602.41" y1="711.462" x2="1602.41" y2="516.727" gradientUnits="userSpaceOnUse">
<stop stop-color="#387099"/>
<stop offset="0.465" stop-color="#5D4F97"/>
<stop offset="1" stop-color="#8A3090"/>
</linearGradient>
<linearGradient id="paint20_linear_34_200" x1="1583.79" y1="698.511" x2="1583.79" y2="529.679" gradientUnits="userSpaceOnUse">
<stop stop-color="#387099"/>
<stop offset="0.465" stop-color="#5D4F97"/>
<stop offset="1" stop-color="#8A3090"/>
</linearGradient>
<linearGradient id="paint21_linear_34_200" x1="1565.17" y1="685.554" x2="1565.17" y2="542.636" gradientUnits="userSpaceOnUse">
<stop stop-color="#387099"/>
<stop offset="0.465" stop-color="#5D4F97"/>
<stop offset="1" stop-color="#8A3090"/>
</linearGradient>
<linearGradient id="paint22_linear_34_200" x1="1546.55" y1="672.602" x2="1546.55" y2="555.588" gradientUnits="userSpaceOnUse">
<stop stop-color="#387099"/>
<stop offset="0.465" stop-color="#5D4F97"/>
<stop offset="1" stop-color="#8A3090"/>
</linearGradient>
<linearGradient id="paint23_linear_34_200" x1="1527.93" y1="659.645" x2="1527.93" y2="568.544" gradientUnits="userSpaceOnUse">
<stop stop-color="#387099"/>
<stop offset="0.465" stop-color="#5D4F97"/>
<stop offset="1" stop-color="#8A3090"/>
</linearGradient>
<linearGradient id="paint24_linear_34_200" x1="1509.3" y1="646.693" x2="1509.3" y2="581.496" gradientUnits="userSpaceOnUse">
<stop stop-color="#387099"/>
<stop offset="0.465" stop-color="#5D4F97"/>
<stop offset="1" stop-color="#8A3090"/>
</linearGradient>
<linearGradient id="paint25_linear_34_200" x1="1490.68" y1="633.742" x2="1490.68" y2="594.448" gradientUnits="userSpaceOnUse">
<stop stop-color="#387099"/>
<stop offset="0.465" stop-color="#5D4F97"/>
<stop offset="1" stop-color="#8A3090"/>
</linearGradient>
</defs>
</svg>
